<svg xmlns="http://www.w3.org/2000/svg" width="800" height="600" viewBox="0 0 800 600">
  <defs>
    <linearGradient id="g1" x1="0" y1="0" x2="1" y2="1">
      <stop offset="0%" stop-color="#2ee6a3"/>
      <stop offset="100%" stop-color="#3b8bff"/>
    </linearGradient>
  </defs>
  <rect width="800" height="600" fill="#090d18"/>
  <g opacity="0.08" stroke="#ffffff">
    <path d="M0 100H800M0 200H800M0 300H800M0 400H800M0 500H800"/>
  </g>
  <rect x="330" y="120" width="140" height="360" rx="12" fill="none" stroke="url(#g1)" stroke-width="4"/>
  <rect x="360" y="150" width="80" height="60" rx="6" fill="url(#g1)" opacity="0.25"/>
  <line x1="400" y1="120" x2="400" y2="60" stroke="url(#g1)" stroke-width="6"/>
  <line x1="400" y1="480" x2="400" y2="540" stroke="url(#g1)" stroke-width="6"/>
  <circle cx="400" cy="60" r="14" fill="url(#g1)"/>
  <circle cx="400" cy="540" r="14" fill="url(#g1)"/>
  <path d="M250 300 L330 300" stroke="url(#g1)" stroke-width="3" stroke-dasharray="6 6"/>
  <path d="M470 300 L550 300" stroke="url(#g1)" stroke-width="3" stroke-dasharray="6 6"/>
  <rect x="365" y="240" width="70" height="140" rx="8" fill="none" stroke="url(#g1)" stroke-width="3"/>
</svg>
